# xmcd
#
# Track frame offsets:
#	150
#	17775
#	33975
#	53925
#	77625
#	105450
#	124650
#	137400
#	159825
#
# Disc length: 2313 seconds
#
# Revision: 1
# Processed by: cddbd v1.5.2PL0 Copyright (c) Steve Scherf et al.
# Submitted via: audiograbber 1.83.01
#
DISCID=63090709
DTITLE=Ullrich Böhme - Joh. Seb. Bach Sechs Sonaten
DYEAR=2016
DGENRE=Classical
TTITLE0=Sonata 2 c-Moll BWV 526 Vivace
TTITLE1=Sonata 2 c-Moll BWV 526 Largo
TTITLE2=Sonata 2 c-Moll BWV 526 Allegro
TTITLE3=Sonata 2 d-Moll BWV 527 Andante
TTITLE4=Sonata 2 d-Moll BWV 527 Adagio e dolce
TTITLE5=Sonata 2 d-Moll BWV 527 Vivace
TTITLE6=Sonata 2 d-Moll BWV 528 Adagio
TTITLE7=Sonata 2 d-Moll BWV 528 Andante
TTITLE8=Sonata 2 d-Moll BWV 528 Un pocc´allegro
EXTD=
EXTT0=
EXTT1=
EXTT2=
EXTT3=
EXTT4=
EXTT5=
EXTT6=
EXTT7=
EXTT8=
PLAYORDER=
